<svg version="1.2" xmlns="http://www.w3.org/2000/svg" viewBox="0 0 925 894" width="925" height="894">
	<title>server-svg</title>
	<style>
		.s0 { fill: #2d2c3d } 
		.s1 { fill: #cccccc } 
		.s2 { fill: #c0c0c0 } 
		.s3 { fill: #e6e6e6 } 
		.s4 { fill: #ff7700 } 
		.s5 { fill: #ffffff } 
		.s6 { fill: #e2e2e2 } 
	</style>
	<path id="Shape 1" class="s0" d="m462 847.4c-221.4 0-400.4-179-400.4-400.4 0-221.4 179-400.4 400.4-400.4 221.4 0 400.4 179 400.4 400.4 0 221.4-179 400.4-400.4 400.4z"/>
	<g id="img">
		<path id="Layer" fill-rule="evenodd" class="s1" d="m463.1 664.6c-108.6 0-202.1-76.7-223.3-183.2-21.2-106.5 35.8-213.1 136.1-254.7 100.4-41.6 216.1-6.5 276.4 83.8 60.4 90.3 48.5 210.7-28.3 287.5-10.5 10.6-22 20.1-34.4 28.4-12.4 8.3-25.6 15.3-39.4 21-13.8 5.7-28.1 10.1-42.7 13-14.6 2.9-29.5 4.3-44.4 4.2zm225.9-227.6c0-124.9-101-225.9-225.9-225.9-125 0-225.9 101-225.9 225.9 0 124.9 100.9 225.9 225.9 225.9 124.9 0 225.9-101 225.9-225.9z"/>
		<path id="Layer" class="s2" d="m376.9 469.5h170.7v229.3h-170.7z"/>
		<path id="Layer" class="s3" d="m347.6 462.5h229.3v91h-229.3z"/>
		<path id="Layer" class="s3" d="m347.6 564h229.3v91h-229.3z"/>
		<path id="Layer" class="s3" d="m347.6 665.5h229.3v91.1h-229.3z"/>
		<path id="Layer" class="s2" d="m347.6 501h229.3v14.1h-229.3z"/>
		<path id="Layer" class="s2" d="m347.6 602.6h229.3v14h-229.3z"/>
		<path id="Layer" class="s2" d="m347.6 704.1h229.3v14h-229.3z"/>
		<path id="Layer" class="s4" d="m532.3 480.8c-2.9 0-5.3-2.3-5.3-5.2 0-2.9 2.4-5.3 5.3-5.3 2.9 0 5.2 2.4 5.2 5.3 0 2.9-2.3 5.2-5.2 5.2z"/>
		<path id="Layer" class="s4" d="m550.7 480.8c-3 0-5.3-2.3-5.3-5.2 0-2.9 2.3-5.3 5.3-5.3 2.9 0 5.2 2.4 5.2 5.3 0 2.9-2.3 5.2-5.2 5.2z"/>
		<path id="Layer" class="s4" d="m569 480.8c-2.9 0-5.2-2.3-5.2-5.2 0-2.9 2.3-5.3 5.2-5.3 2.9 0 5.3 2.4 5.3 5.3 0 2.9-2.4 5.2-5.3 5.2z"/>
		<path id="Layer" class="s4" d="m532.3 580.6c-2.9 0-5.3-2.3-5.3-5.2 0-2.9 2.4-5.3 5.3-5.3 2.9 0 5.2 2.4 5.2 5.3 0 2.9-2.3 5.2-5.2 5.2z"/>
		<path id="Layer" class="s4" d="m550.7 580.6c-3 0-5.3-2.3-5.3-5.2 0-2.9 2.3-5.3 5.3-5.3 2.9 0 5.2 2.4 5.2 5.3 0 2.9-2.3 5.2-5.2 5.2z"/>
		<path id="Layer" class="s4" d="m569 580.6c-2.9 0-5.2-2.3-5.2-5.2 0-2.9 2.3-5.3 5.2-5.3 2.9 0 5.3 2.4 5.3 5.3 0 2.9-2.4 5.2-5.3 5.2z"/>
		<path id="Layer" class="s4" d="m532.3 680.4c-2.9 0-5.3-2.3-5.3-5.2 0-3 2.4-5.3 5.3-5.3 2.9 0 5.2 2.3 5.2 5.3 0 2.9-2.3 5.2-5.2 5.2z"/>
		<path id="Layer" class="s4" d="m550.7 680.4c-3 0-5.3-2.3-5.3-5.2 0-3 2.3-5.3 5.3-5.3 2.9 0 5.2 2.3 5.2 5.3 0 2.9-2.3 5.2-5.2 5.2z"/>
		<path id="Layer" class="s4" d="m569 680.4c-2.9 0-5.2-2.3-5.2-5.2 0-3 2.3-5.3 5.2-5.3 2.9 0 5.3 2.3 5.3 5.3 0 2.9-2.4 5.2-5.3 5.2z"/>
		<path id="Layer" class="s3" d="m285.3 372.5v162.8c0 1.7-0.3 3.4-1 4.9-0.6 1.6-1.5 3-2.7 4.2-1.2 1.2-2.6 2.1-4.2 2.8-1.6 0.6-3.2 1-4.9 1h-63.3c-1.7 0-3.3-0.4-4.9-1-1.6-0.7-3-1.6-4.2-2.8-1.2-1.2-2.1-2.6-2.8-4.2-0.6-1.5-0.9-3.2-0.9-4.9v-162.8c0-1.7 0.3-3.3 0.9-4.9 0.7-1.6 1.6-3 2.8-4.2 1.2-1.2 2.6-2.1 4.2-2.7 1.6-0.7 3.2-1 4.9-1h7.7c-0.4 0.9-0.5 1.9-0.4 2.9 0.1 1 0.4 2 1 2.8 0.5 0.8 1.3 1.5 2.2 2 0.9 0.4 1.8 0.7 2.8 0.7h36.1c1 0 2-0.3 2.9-0.7 0.9-0.5 1.6-1.2 2.2-2 0.5-0.8 0.9-1.8 1-2.8 0.1-1-0.1-2-0.4-2.9h8.2c1.7 0 3.3 0.3 4.9 1 1.6 0.6 3 1.5 4.2 2.7 1.2 1.2 2.1 2.6 2.7 4.2 0.7 1.6 1 3.2 1 4.9z"/>
		<path id="Layer" class="s5" d="m200.6 390.8h80.5v112h-80.5z"/>
		<path id="Layer" class="s3" d="m223.4 467.8h32.2v1.8h-32.2z"/>
		<path id="Layer" class="s4" d="m223.4 474.6h49.7v1.8h-49.7z"/>
		<path id="Layer" class="s3" d="m223.4 480.9h39v1.8h-39z"/>
		<path id="Layer" class="s3" d="m223.4 487.3h23v1.8h-23z"/>
		<path id="Layer" class="s3" d="m223.4 493.6h34.4v1.8h-34.4z"/>
		<path id="Layer" class="s3" d="m208.9 467.3h3.6v3.7h-3.6z"/>
		<path id="Layer" class="s4" d="m208.9 473.6h3.6v3.7h-3.6z"/>
		<path id="Layer" class="s3" d="m208.9 480h3.6v3.7h-3.6z"/>
		<path id="Layer" class="s3" d="m208.9 486.3h3.6v3.7h-3.6z"/>
		<path id="Layer" class="s3" d="m208.9 492.7h3.6v3.7h-3.6z"/>
		<path id="Layer" class="s4" d="m224.8 404.8h32.4v32.4h-32.4z"/>
		<path id="Layer" class="s3" d="m354.7 135.4h215.2v137.8h-215.2z"/>
		<path id="Layer" class="s5" d="m370.9 173.9h178.4v67.5h-178.4z"/>
		<path id="Layer" class="s3" d="m403.4 185.6h42.8v2.5h-42.8z"/>
		<path id="Layer" class="s4" d="m403.4 194.6h66.2v2.4h-66.2z"/>
		<path id="Layer" class="s3" d="m403.4 203.1h52v2.4h-52z"/>
		<path id="Layer" class="s3" d="m403.4 211.5h30.6v2.5h-30.6z"/>
		<path id="Layer" class="s3" d="m403.4 220h45.9v2.4h-45.9z"/>
		<path id="Layer" class="s3" d="m384 184.9h4.9v4.9h-4.9z"/>
		<path id="Layer" class="s4" d="m384 193.4h4.9v4.9h-4.9z"/>
		<path id="Layer" class="s3" d="m384 201.8h4.9v4.9h-4.9z"/>
		<path id="Layer" class="s3" d="m384 210.3h4.9v4.9h-4.9z"/>
		<path id="Layer" class="s3" d="m384 218.8h4.9v4.9h-4.9z"/>
		<path id="Layer" class="s4" d="m496.8 182.4h43.8v43.8h-43.8z"/>
		<path id="Layer" class="s4" d="m354.6 135.2h215.2v9.2h-215.2z"/>
		<path id="Layer" class="s5" d="m361.4 141.8c-1 0-1.9-0.9-1.9-1.9 0-1 0.9-1.8 1.9-1.8 1 0 1.8 0.8 1.8 1.8 0 1-0.8 1.9-1.8 1.9z"/>
		<path id="Layer" class="s5" d="m367.8 141.8c-1 0-1.8-0.9-1.8-1.9 0-1 0.8-1.8 1.8-1.8 1 0 1.8 0.8 1.8 1.8 0 1-0.8 1.9-1.8 1.9z"/>
		<path id="Layer" class="s5" d="m374.2 141.8c-1 0-1.8-0.9-1.8-1.9 0-1 0.8-1.8 1.8-1.8 1.1 0 1.9 0.8 1.9 1.8 0 1-0.8 1.9-1.9 1.9z"/>
		<path id="Layer" class="s3" d="m661.5 393.3h52.5v27.1h-52.5z"/>
		<path id="Layer" class="s3" d="m661.5 490.5h52.5v27.1h-52.5z"/>
		<path id="Layer" class="s3" d="m687.8 499.2c-24.2 0-43.8-19.5-43.8-43.8 0-24.2 19.6-43.7 43.8-43.7 24.2 0 43.7 19.5 43.7 43.7 0 24.3-19.5 43.8-43.7 43.8z"/>
		<path id="Layer" class="s5" d="m687.8 489.6c-18.9 0-34.2-15.3-34.2-34.2 0-18.8 15.3-34.1 34.2-34.1 18.8 0 34.1 15.3 34.1 34.1 0 18.9-15.3 34.2-34.1 34.2z"/>
		<path id="Layer" class="s6" d="m676.6 446.1h26.5v1.5h-26.5z"/>
		<path id="Layer" class="s4" d="m676.6 451.6h40.9v1.6h-40.9z"/>
		<path id="Layer" class="s6" d="m676.6 456.9h32.1v1.5h-32.1z"/>
		<path id="Layer" class="s6" d="m676.6 462.1h18.9v1.5h-18.9z"/>
		<path id="Layer" class="s6" d="m676.6 467.4h28.3v1.5h-28.3z"/>
		<path id="Layer" class="s6" d="m664.6 445.7h3v3h-3z"/>
		<path id="Layer" class="s4" d="m664.6 450.9h3v3h-3z"/>
		<path id="Layer" class="s6" d="m664.6 456.1h3v3.1h-3z"/>
		<path id="Layer" class="s6" d="m664.6 461.4h3v3h-3z"/>
		<path id="Layer" class="s6" d="m664.6 466.6h3v3h-3z"/>
	</g>
</svg>